<svg width="625" height="386" xmlns="http://www.w3.org/2000/svg">
 <!-- Created with Method Draw - http://github.com/duopixel/Method-Draw/ -->
 <defs>
  <filter id="svg_14_blur" x="-50%" y="-50%" width="200%" height="200%">
   <feGaussianBlur stdDeviation="1"/>
  </filter>
  <filter height="200%" width="200%" y="-50%" x="-50%" id="svg_13_blur">
   <feGaussianBlur stdDeviation="10"/>
  </filter>
  <filter height="200%" width="200%" y="-50%" x="-50%" id="svg_32_blur">
   <feGaussianBlur stdDeviation="4.3"/>
  </filter>
  <filter height="200%" width="200%" y="-50%" x="-50%" id="svg_35_blur">
   <feGaussianBlur stdDeviation="4.5"/>
  </filter>
  <filter height="200%" width="200%" y="-50%" x="-50%" id="svg_40_blur">
   <feGaussianBlur stdDeviation="0"/>
  </filter>
  <filter id="svg_58_blur">
   <feGaussianBlur stdDeviation="0"/>
  </filter>
  <filter height="200%" width="200%" y="-50%" x="-50%" id="svg_73_blur">
   <feGaussianBlur stdDeviation="0"/>
  </filter>
  <filter height="200%" width="200%" y="-50%" x="-50%" id="svg_77_blur">
   <feGaussianBlur stdDeviation="0"/>
  </filter>
  <filter height="200%" width="200%" y="-50%" x="-50%" id="svg_86_blur">
   <feGaussianBlur stdDeviation="4.4"/>
  </filter>
  <filter height="200%" width="200%" y="-50%" x="-50%" id="svg_87_blur">
   <feGaussianBlur stdDeviation="4.3"/>
  </filter>
  <filter height="200%" width="200%" y="-50%" x="-50%" id="svg_88_blur">
   <feGaussianBlur stdDeviation="4.3"/>
  </filter>
  <filter height="200%" width="200%" y="-50%" x="-50%" id="svg_89_blur">
   <feGaussianBlur stdDeviation="2.7"/>
  </filter>
  <filter height="200%" width="200%" y="-50%" x="-50%" id="svg_91_blur">
   <feGaussianBlur stdDeviation="3.9"/>
  </filter>
  <filter height="200%" width="200%" y="-50%" x="-50%" id="svg_92_blur">
   <feGaussianBlur stdDeviation="2.3"/>
  </filter>
  <filter height="200%" width="200%" y="-50%" x="-50%" id="svg_93_blur">
   <feGaussianBlur stdDeviation="2.8"/>
  </filter>
  <filter height="200%" width="200%" y="-50%" x="-50%" id="svg_94_blur">
   <feGaussianBlur stdDeviation="4.4"/>
  </filter>
  <filter height="200%" width="200%" y="-50%" x="-50%" id="svg_95_blur">
   <feGaussianBlur stdDeviation="4.3"/>
  </filter>
  <filter height="200%" width="200%" y="-50%" x="-50%" id="svg_96_blur">
   <feGaussianBlur stdDeviation="4.5"/>
  </filter>
  <filter height="200%" width="200%" y="-50%" x="-50%" id="svg_99_blur">
   <feGaussianBlur stdDeviation="10"/>
  </filter>
  <filter height="200%" width="200%" y="-50%" x="-50%" id="svg_100_blur">
   <feGaussianBlur stdDeviation="10"/>
  </filter>
  <filter height="200%" width="200%" y="-50%" x="-50%" id="svg_101_blur">
   <feGaussianBlur stdDeviation="10"/>
  </filter>
  <filter id="svg_102_blur">
   <feGaussianBlur stdDeviation="1.2"/>
  </filter>
 </defs>
 <g>
  <title>background</title>
  <rect x="-1" y="-1" width="627" height="388" id="canvas_background" fill="#fff"/>
  <g id="canvasGrid" display="none">
   <rect id="svg_1" width="100%" height="100%" x="0" y="0" stroke-width="0" fill="url(#gridpattern)"/>
  </g>
 </g>
 <g>
  <title>Layer 1</title>
  <rect fill="#a6d8f4" stroke-width="1.5" stroke-opacity="0" x="-162.998673" y="-112.018988" width="857.999988" height="650.000001" id="svg_8" stroke="#11229d"/>
  <path opacity="0.18" filter="url(#svg_101_blur)" id="svg_101" d="m144.500816,135.50718c150,-44 13,-150 91,-22c78,128 -108,213 93,86c201,-127 -146,-300 199,-127c345,173 546,224 94,122c-452,-102 -730,-112 -431,-137c299,-25 339,-129 300,-20c-39,109 -90,6 -28,75c62,69 51,76 -26,18c-77,-58 -132,-170 -67,-70c65,100 -33,241 37,55c70,-186 109,1 108.5,0.99107" stroke-opacity="0" stroke-width="74" stroke="#11229d" fill="#3293d3"/>
  <path stroke="#11229d" transform="rotate(8 240.6852722167965,173.04090881347653) " opacity="0.17" filter="url(#svg_100_blur)" id="svg_100" d="m-60.238094,73.62343c-25.98971,128 -230.36336,227 -27.17106,105c203.1923,-122 163.02638,-217 152.39423,-131c-10.63216,86 73.24373,-56 199.64825,70c126.40451,126 89.78264,-16 170.11448,80c80.33184,96 291.7936,-107 81.51319,74c-210.2804,181 408.74731,-108 -3.54405,-83c-412.29136,25 -287.06819,-322 -450.09457,-8c-163.02639,314 -96.87075,-235 -122.86047,-107z" stroke-opacity="0" stroke-width="74" fill="#6bbcea"/>
  <path transform="rotate(-180 378.2002868652344,194.68565368652344) " filter="url(#svg_99_blur)" id="svg_99" d="m64.33888,276.81781c94.00001,-57.53023 -14,52.57073 -2,16.86231c12,-35.70842 49.00001,-70.42494 31.00001,-56.53833c-18,13.88661 -203,-74.39254 66,-46.61932c269,27.77321 3,55.54643 148,39.67602c145,-15.87041 287,-7.93521 136,3.9676c-151,11.90281 -229,-94.23055 -190,-49.59503c39,44.63553 100,-38.68412 132,23.80562c32,62.48973 12,166.63929 -22,59.51403c-34,-107.12526 199,-173.58259 -45,-75.38444c-244,98.19815 167,110.10096 -39,41.65982c-206,-68.44114 -175,-156.72028 -206,-68.44114c-31,88.27915 -67,-8.9271 -50,92.24675c17,101.17386 6,158.70409 33,91.25485c27,-67.44923 -16,-96.21435 43,-90.26295c59,5.95141 -234,34.71652 59,5.95141c293,-28.76512 36,158.70408 297,-30.74892c261,-189.453 267,-223.17762 266,-223.17762c-1,0 116,291.61876 -199,198.38011c-315,-93.23865 -290,-236.07233 -346,-64.47354c-56,171.59879 248,77.36824 -71,156.72029" opacity="0.18" stroke-opacity="0" stroke-width="74" fill="#55a8db" stroke="#11229d"/>
  <path fill="none" stroke="#11229d" stroke-width="1.5" stroke-opacity="0" id="svg_10" d="m95.5,145.98994c-1,-1 -2,-1 -3,-1c-1,0 -2.48626,0.82375 -3,3c-0.4595,1.9465 -1,5 -1,7c0,2 0.07612,3.38268 1,3c1.30656,-0.54119 2,-1 3,-2l1,0"/>
  <line stroke="#11229d" stroke-linecap="null" stroke-linejoin="null" id="svg_5" y2="397.989938" x2="363.501314" y1="380.989938" x1="190.501314" stroke-opacity="0" fill="none"/>
  <ellipse stroke="#11229d" filter="url(#svg_13_blur)" ry="310.999965" rx="309.99999" id="svg_13" cy="557.989988" cx="308.501316" stroke-opacity="0" stroke-width="1.5" fill="#ffffff"/>
  <ellipse filter="url(#svg_14_blur)" stroke="#11229d" ry="298.499989" rx="295.499989" id="svg_14" cy="566.491466" cx="313.998809" stroke-opacity="0" stroke-width="1.5" fill="#8bccf4"/>
  <rect filter="url(#svg_40_blur)" stroke="#11229d" transform="rotate(-101 207.52664184570307,337.0559692382812) " id="svg_55" height="1.858468" width="172.000007" y="336.126729" x="121.52665" stroke-opacity="0" stroke-width="74" fill="#3293d3"/>
  <line stroke="#11229d" stroke-linecap="null" stroke-linejoin="null" id="svg_17" y2="368.989938" x2="315.501308" y1="145.989938" x1="289.501307" stroke-opacity="0" stroke-width="1.5" fill="none"/>
  <rect stroke="#11229d" filter="url(#svg_40_blur)" transform="rotate(-151 177.5408782958984,387.03018188476557) " id="svg_45" height="1.858468" width="110.226247" y="386.100971" x="122.42776" stroke-opacity="0" stroke-width="74" fill="#3293d3"/>
  <rect filter="url(#svg_40_blur)" stroke="#11229d" transform="rotate(-21 302.193511962891,383.72253417968744) " id="svg_40" height="1.858468" width="172.000007" y="382.793313" x="216.193483" stroke-opacity="0" stroke-width="74" fill="#3293d3"/>
  <rect filter="url(#svg_40_blur)" stroke="#11229d" transform="rotate(-42 156.52664184570318,474.05596923828125) " id="svg_44" height="1.858468" width="172.000007" y="473.126729" x="70.52665" stroke-opacity="0" stroke-width="74" fill="#02afdb"/>
  <rect filter="url(#svg_40_blur)" stroke="#11229d" transform="rotate(-43 66.52664947509763,420.05596923828125) " id="svg_51" height="1.858468" width="172.000007" y="419.126729" x="-19.47335" stroke-opacity="0" stroke-width="74" fill="#3293d3"/>
  <rect stroke="#11229d" filter="url(#svg_40_blur)" transform="rotate(16 96.95587158203135,350.1551208496094) " id="svg_53" height="1.858468" width="71.512788" y="349.225906" x="61.199471" stroke-opacity="0" stroke-width="74" fill="#3293d3"/>
  <rect transform="rotate(96 212.52664184570304,502.0559692382813) " stroke="#11229d" filter="url(#svg_40_blur)" id="svg_43" height="1.858468" width="172.000007" y="501.126729" x="126.52665" stroke-opacity="0" stroke-width="74" fill="#02afdb"/>
  <rect transform="rotate(39 292.52667236328114,472.0559692382813) " filter="url(#svg_40_blur)" stroke="#11229d" id="svg_42" height="1.858468" width="172.000007" y="471.126729" x="206.52665" stroke-opacity="0" stroke-width="74" fill="#02afdb"/>
  <ellipse ry="9" rx="9" id="svg_31" cy="412.989938" cx="226.499315" stroke-opacity="0" stroke-width="1.5" stroke="#11229d" fill="#00cbff"/>
  <rect filter="url(#svg_40_blur)" stroke="#11229d" transform="rotate(39 450.1934509277344,409.055908203125) " id="svg_46" height="1.858468" width="172.000007" y="408.126667" x="364.193452" stroke-opacity="0" stroke-width="74" fill="#3293d3"/>
  <ellipse filter="url(#svg_32_blur)" opacity="0.78" ry="9" rx="9" id="svg_32" cy="413.989938" cx="226.499315" stroke-opacity="0" stroke-width="1.5" stroke="#11229d" fill="#ffffff"/>
  <rect filter="url(#svg_40_blur)" transform="rotate(-146 442.04077148437494,304.44311523437494) " id="svg_63" height="1.858468" width="166.314436" y="303.513854" x="358.883545" stroke-opacity="0" stroke-width="74" fill="#3293d3" stroke="#11229d"/>
  <rect stroke="#11229d" filter="url(#svg_40_blur)" transform="rotate(29 289.4259948730468,301.75531005859375) " id="svg_56" height="1.858468" width="214.076755" y="300.826086" x="182.387598" stroke-opacity="0" stroke-width="74" fill="#3293d3"/>
  <rect filter="url(#svg_40_blur)" stroke="#11229d" transform="rotate(-84 373.61251831054693,439.1745910644532) " id="svg_41" height="1.858468" width="165.757099" y="438.245353" x="290.733984" stroke-opacity="0" stroke-width="74" fill="#3293d3"/>
  <rect stroke="#11229d" transform="rotate(-3 445.4461364746041,351.4609680175775) " filter="url(#svg_40_blur)" id="svg_61" height="1.858468" width="117.987558" y="350.531771" x="386.452334" stroke-opacity="0" stroke-width="74" fill="#3293d3"/>
  <rect stroke="#11229d" filter="url(#svg_40_blur)" transform="rotate(-97 376.06716918945307,305.0615539550781) " id="svg_60" height="1.858468" width="97.928594" y="304.13231" x="327.102864" stroke-opacity="0" stroke-width="74" fill="#3293d3"/>
  <rect opacity="0.9" filter="url(#svg_40_blur)" stroke="#11229d" transform="rotate(-27 427.5253295898439,500.05639648437494) " id="svg_47" height="1.858468" width="172.000007" y="499.126729" x="341.525335" stroke-opacity="0" stroke-width="74" fill="#00cbff"/>
  <rect opacity="0.9" filter="url(#svg_40_blur)" stroke="#11229d" transform="rotate(-124 551.5253295898439,534.0563964843751) " id="svg_48" height="1.858468" width="172.000007" y="533.126729" x="465.525335" stroke-opacity="0" stroke-width="74" fill="#00cbff"/>
  <rect stroke="#11229d" filter="url(#svg_40_blur)" transform="rotate(-62 160.15606689453122,306.0608215332031) " id="svg_54" height="1.858468" width="127.818134" y="305.1316" x="96.247002" stroke-opacity="0" stroke-width="74" fill="#3293d3"/>
  <rect filter="url(#svg_40_blur)" stroke="#11229d" transform="rotate(-78 111.52664947509768,446.0559387207031) " id="svg_50" height="1.858468" width="172.000007" y="445.126729" x="25.52665" stroke-opacity="0" stroke-width="74" fill="#3293d3"/>
  <rect stroke="#11229d" filter="url(#svg_40_blur)" transform="rotate(-36 127.28287506103514,293.96765136718756) " id="svg_66" height="1.858468" width="154.353451" y="293.038414" x="50.106149" stroke-opacity="0" stroke-width="74" fill="#3293d3"/>
  <rect stroke="#11229d" filter="url(#svg_40_blur)" transform="rotate(-58 -9.266464233398459,455.58740234375) " id="svg_52" height="1.858468" width="269.183588" y="454.658176" x="-143.858267" stroke-opacity="0" stroke-width="74" fill="#3293d3"/>
  <rect filter="url(#svg_40_blur)" stroke="#11229d" transform="rotate(2 281.5266723632819,252.05595397949145) " id="svg_57" height="1.858468" width="172.000007" y="251.126729" x="195.52665" stroke-opacity="0" stroke-width="74" fill="#3293d3"/>
  <rect stroke="#11229d" filter="url(#svg_58_blur)" transform="rotate(-10 242.87278747558537,239.06893920898435) " id="svg_58" height="1.858468" width="110.423382" y="238.139707" x="187.661107" stroke-opacity="0" stroke-width="74" fill="#3293d3"/>
  <rect stroke="#11229d" filter="url(#svg_40_blur)" transform="rotate(19 333.9881896972655,241.05125427246102) " id="svg_59" height="1.858468" width="73.820518" y="240.122031" x="297.077911" stroke-opacity="0" stroke-width="74" fill="#3293d3"/>
  <rect stroke="#11229d" filter="url(#svg_40_blur)" transform="rotate(-98 514.5799560546875,402.4114685058594) " id="svg_62" height="1.858468" width="107.143733" y="401.482219" x="461.008083" stroke-opacity="0" stroke-width="74" fill="#3293d3"/>
  <ellipse ry="9" rx="9" id="svg_34" cy="354.323159" cx="381.501345" stroke-opacity="0" stroke-width="74" stroke="#11229d" fill="#2db2ff"/>
  <rect transform="rotate(19.578779220581055 587.5253906249999,490.05639648437494) " opacity="0.9" filter="url(#svg_40_blur)" stroke="#11229d" id="svg_64" height="1.858468" width="172.000007" y="489.126729" x="501.525335" stroke-opacity="0" stroke-width="74" fill="#00cbff"/>
  <ellipse filter="url(#svg_102_blur)" opacity="0.32" stroke="#11229d" ry="2.5" rx="2.5" id="svg_118" cy="183.855996" cx="504.801529" fill-opacity="null" stroke-opacity="0" stroke-width="74" fill="#ffffff"/>
  <ellipse filter="url(#svg_102_blur)" opacity="0.36" stroke="#11229d" ry="2.5" rx="2.5" id="svg_3" cy="220.156304" cx="577.668426" fill-opacity="null" stroke-opacity="0" stroke-width="74" fill="#ffffff"/>
  <rect stroke="#11229d" filter="url(#svg_40_blur)" transform="rotate(-125 558.8282470703125,418.6466674804688) " id="svg_65" height="1.858468" width="170.641853" y="417.717434" x="473.507296" stroke-opacity="0" stroke-width="74" fill="#3293d3"/>
  <rect transform="rotate(1 417.9130249023463,255.54089355468935) " stroke="#11229d" filter="url(#svg_40_blur)" id="svg_67" height="1.858468" width="98.900231" y="254.611649" x="368.462895" stroke-opacity="0" stroke-width="74" fill="#3293d3"/>
  <rect stroke="#11229d" transform="rotate(-113 488.7419738769531,302.2317199707031) " filter="url(#svg_40_blur)" id="svg_68" height="1.858468" width="99.196571" y="301.302508" x="439.14366" stroke-opacity="0" stroke-width="74" fill="#3293d3"/>
  <rect stroke="#11229d" filter="url(#svg_58_blur)" transform="rotate(-35 384.95898437499994,244.13128662109378) " id="svg_85" height="1.858468" width="38.366586" y="243.202056" x="365.77568" stroke-opacity="0" stroke-width="74" fill="#3293d3"/>
  <rect transform="rotate(3 350.1848144531274,230.55715942382758) " filter="url(#svg_40_blur)" id="svg_69" height="1.858468" width="99.393397" y="229.627946" x="300.48812" stroke-opacity="0" stroke-width="74" fill="#3293d3" stroke="#11229d"/>
  <rect stroke="#11229d" filter="url(#svg_58_blur)" transform="rotate(-160 434.05120849609375,244.5449371337891) " id="svg_84" height="1.858468" width="70.362154" y="243.615717" x="398.870125" stroke-opacity="0" stroke-width="74" fill="#3293d3"/>
  <ellipse stroke="#11229d" filter="url(#svg_77_blur)" ry="4.666648" rx="4.5" id="svg_82" cy="233.656615" cx="399.668053" stroke-opacity="0" stroke-width="74" fill="#2db2ff"/>
  <rect transform="rotate(-139 528.4896240234375,307.59197998046875) " stroke="#11229d" filter="url(#svg_40_blur)" id="svg_70" height="1.858468" width="157.173431" y="306.662736" x="449.902976" stroke-opacity="0" stroke-width="74" fill="#3293d3"/>
  <rect transform="rotate(9 547.2600097656248,352.7684936523438) " filter="url(#svg_40_blur)" id="svg_71" height="1.858468" width="78.02235" y="351.839286" x="508.248856" stroke-opacity="0" stroke-width="74" fill="#3293d3" stroke="#11229d"/>
  <rect filter="url(#svg_40_blur)" stroke="#11229d" transform="rotate(-106 609.8610229492186,442.05651855468744) " id="svg_72" height="1.858468" width="172.000007" y="441.127291" x="523.861003" stroke-opacity="0" stroke-width="74" fill="#3293d3"/>
  <ellipse stroke="#11229d" filter="url(#svg_73_blur)" ry="7" rx="7" id="svg_73" cy="247.989938" cx="191.751314" stroke-opacity="0" stroke-width="74" fill="#2db2ff"/>
  <ellipse filter="url(#svg_102_blur)" opacity="0.46" stroke="#11229d" ry="2.5" rx="2.5" id="svg_102" cy="136.819731" cx="42.99697" fill-opacity="null" stroke-opacity="0" stroke-width="74" fill="#ffffff"/>
  <ellipse stroke="#11229d" filter="url(#svg_73_blur)" ry="7" rx="7" id="svg_74" cy="341.323272" cx="62.417932" stroke-opacity="0" stroke-width="74" fill="#2db2ff"/>
  <ellipse stroke="#11229d" filter="url(#svg_73_blur)" ry="7" rx="7" id="svg_76" cy="358.822077" cx="585.252061" stroke-opacity="0" stroke-width="74" fill="#2db2ff"/>
  <ellipse filter="url(#svg_77_blur)" ry="9" rx="9" id="svg_77" cy="361.322774" cx="129.835139" stroke-opacity="0" stroke-width="74" stroke="#11229d" fill="#2db2ff"/>
  <ellipse filter="url(#svg_77_blur)" ry="9" rx="9" id="svg_78" cy="346.322805" cx="507.334885" stroke-opacity="0" stroke-width="74" stroke="#11229d" fill="#2db2ff"/>
  <ellipse filter="url(#svg_77_blur)" ry="9" rx="9" id="svg_79" cy="460.989938" cx="502.499999" stroke-opacity="0" stroke-width="74" stroke="#11229d" fill="#00cbff"/>
  <ellipse stroke="#11229d" filter="url(#svg_73_blur)" ry="7" rx="7" id="svg_75" cy="255.157333" cx="371.084628" stroke-opacity="0" stroke-width="74" fill="#2db2ff"/>
  <ellipse stroke="#11229d" filter="url(#svg_77_blur)" ry="5" rx="5" id="svg_80" cy="228.823505" cx="300.834167" stroke-opacity="0" stroke-width="74" fill="#2db2ff"/>
  <ellipse opacity="0.9" ry="9" rx="9" id="svg_35" cy="346.323442" cx="507.164136" stroke-opacity="0" stroke-width="1.5" stroke="#11229d" fill="#ffffff" filter="url(#svg_35_blur)"/>
  <ellipse stroke="#11229d" filter="url(#svg_77_blur)" ry="5" rx="5" id="svg_81" cy="256.655648" cx="468.334923" stroke-opacity="0" stroke-width="74" fill="#2db2ff"/>
  <ellipse filter="url(#svg_86_blur)" stroke="#11229d" ry="7" rx="7" id="svg_86" cy="341.656579" cx="62.584856" stroke-opacity="0" stroke-width="74" fill="#ffffff"/>
  <ellipse filter="url(#svg_87_blur)" opacity="0.83" ry="9" rx="9" id="svg_87" cy="353.989666" cx="381.827285" stroke-opacity="0" stroke-width="74" stroke="#11229d" fill="#ffffff"/>
  <ellipse filter="url(#svg_88_blur)" stroke="#11229d" opacity="0.97" ry="7" rx="7" id="svg_88" cy="248.657051" cx="191.917741" stroke-opacity="0" stroke-width="74" fill="#ffffff"/>
  <ellipse stroke="#11229d" opacity="0.94" ry="5" rx="5" id="svg_89" cy="229.323268" cx="301.001064" stroke-opacity="0" stroke-width="74" fill="#ffffff" filter="url(#svg_89_blur)"/>
  <ellipse filter="url(#svg_92_blur)" stroke="#11229d" opacity="0.86" ry="4.000002" rx="4.5" id="svg_92" cy="233.989939" cx="399.668053" stroke-opacity="0" stroke-width="74" fill="#ffffff"/>
  <ellipse filter="url(#svg_93_blur)" stroke="#11229d" opacity="0.98" ry="5" rx="5" id="svg_93" cy="256.322328" cx="468.501817" stroke-opacity="0" stroke-width="74" fill="#ffffff"/>
  <ellipse filter="url(#svg_94_blur)" opacity="0.87" ry="9" rx="9" id="svg_94" cy="361.82208" cx="129.846855" stroke-opacity="0" stroke-width="74" stroke="#11229d" fill="#ffffff"/>
  <ellipse filter="url(#svg_95_blur)" stroke="#11229d" opacity="0.97" ry="7" rx="7" id="svg_95" cy="358.988479" cx="585.251573" stroke-opacity="0" stroke-width="74" fill="#ffffff"/>
  <ellipse filter="url(#svg_96_blur)" opacity="0.84" ry="9" rx="9" id="svg_96" cy="460.989938" cx="502.499999" stroke-opacity="0" stroke-width="74" stroke="#11229d" fill="#ffffff"/>
  <ellipse filter="url(#svg_102_blur)" opacity="0.36" stroke="#11229d" ry="2.5" rx="2.5" id="svg_113" cy="303.156615" cx="49.667991" fill-opacity="null" stroke-opacity="0" stroke-width="74" fill="#ffffff"/>
  <ellipse filter="url(#svg_102_blur)" opacity="0.44" stroke="#11229d" ry="2.5" rx="2.5" id="svg_114" cy="222.489938" cx="102.001998" stroke-opacity="0" stroke-width="74" fill="#ffffff"/>
  <ellipse filter="url(#svg_102_blur)" opacity="0.44" stroke="#11229d" ry="2.5" rx="2.5" id="svg_115" cy="272.935754" cx="543.824486" fill-opacity="null" stroke-opacity="0" stroke-width="74" fill="#ffffff"/>
  <ellipse filter="url(#svg_102_blur)" opacity="0.42" stroke="#11229d" ry="2.5" rx="2.5" id="svg_116" cy="104.754693" cx="556.872495" fill-opacity="null" stroke-opacity="0" stroke-width="74" fill="#ffffff"/>
  <ellipse filter="url(#svg_102_blur)" opacity="0.42" stroke="#11229d" ry="2.5" rx="2.5" id="svg_117" cy="162.310925" cx="267.01536" fill-opacity="null" stroke-opacity="0" stroke-width="74" fill="#ffffff"/>
  <ellipse filter="url(#svg_102_blur)" opacity="0.38" stroke="#11229d" ry="2.5" rx="2.5" id="svg_119" cy="137.84075" cx="170.363805" fill-opacity="null" stroke-opacity="0" stroke-width="74" fill="#ffffff"/>
  <ellipse filter="url(#svg_102_blur)" opacity="0.45" stroke="#11229d" ry="2.5" rx="2.5" id="svg_120" cy="47.995745" cx="309.159249" fill-opacity="null" stroke-opacity="0" stroke-width="74" fill="#ffffff"/>
  <ellipse filter="url(#svg_102_blur)" opacity="0.4" stroke="#11229d" ry="2.5" rx="2.5" id="svg_2" cy="147.825036" cx="398.647873" fill-opacity="null" stroke-opacity="0" stroke-width="74" fill="#ffffff"/>
  <ellipse stroke="#11229d" ry="7" rx="7" id="svg_91" cy="255.823981" cx="371.084636" stroke-opacity="0" stroke-width="74" fill="#ffffff" filter="url(#svg_91_blur)"/>
  <ellipse filter="url(#svg_102_blur)" opacity="0.39" stroke="#11229d" ry="2.5" rx="2.5" id="svg_22" cy="23.159954" cx="126.515553" fill-opacity="null" stroke-opacity="0" stroke-width="74" fill="#ffffff"/>
  <ellipse filter="url(#svg_102_blur)" opacity="0.44" stroke="#11229d" ry="2.5" rx="2.5" id="svg_23" cy="27.826787" cx="567.173586" fill-opacity="null" stroke-opacity="0" stroke-width="74" fill="#ffffff"/>
  <ellipse filter="url(#svg_102_blur)" opacity="0.44" stroke="#11229d" ry="2.5" rx="2.5" id="svg_24" cy="39.644957" cx="457.512313" fill-opacity="null" stroke-opacity="0" stroke-width="74" fill="#ffffff"/>
  <ellipse filter="url(#svg_102_blur)" opacity="0.41" stroke="#11229d" ry="2.5" rx="2.5" id="svg_26" cy="47.660832" cx="16.575209" fill-opacity="null" stroke-opacity="0" stroke-width="74" fill="#ffffff"/>
 </g>
</svg>