<svg width="699" height="386" xmlns="http://www.w3.org/2000/svg">
 <!-- Created with Method Draw - http://github.com/duopixel/Method-Draw/ -->
 <defs>
  <filter id="svg_14_blur" x="-50%" y="-50%" width="200%" height="200%">
   <feGaussianBlur stdDeviation="1"/>
  </filter>
  <filter height="200%" width="200%" y="-50%" x="-50%" id="svg_13_blur">
   <feGaussianBlur stdDeviation="10"/>
  </filter>
  <filter height="200%" width="200%" y="-50%" x="-50%" id="svg_32_blur">
   <feGaussianBlur stdDeviation="4.3"/>
  </filter>
  <filter height="200%" width="200%" y="-50%" x="-50%" id="svg_35_blur">
   <feGaussianBlur stdDeviation="4.5"/>
  </filter>
  <filter height="200%" width="200%" y="-50%" x="-50%" id="svg_40_blur">
   <feGaussianBlur stdDeviation="0"/>
  </filter>
  <filter id="svg_58_blur">
   <feGaussianBlur stdDeviation="0"/>
  </filter>
  <filter height="200%" width="200%" y="-50%" x="-50%" id="svg_73_blur">
   <feGaussianBlur stdDeviation="0"/>
  </filter>
  <filter height="200%" width="200%" y="-50%" x="-50%" id="svg_77_blur">
   <feGaussianBlur stdDeviation="0"/>
  </filter>
  <filter height="200%" width="200%" y="-50%" x="-50%" id="svg_86_blur">
   <feGaussianBlur stdDeviation="4.4"/>
  </filter>
  <filter height="200%" width="200%" y="-50%" x="-50%" id="svg_87_blur">
   <feGaussianBlur stdDeviation="4.3"/>
  </filter>
  <filter height="200%" width="200%" y="-50%" x="-50%" id="svg_88_blur">
   <feGaussianBlur stdDeviation="4.3"/>
  </filter>
  <filter height="200%" width="200%" y="-50%" x="-50%" id="svg_89_blur">
   <feGaussianBlur stdDeviation="2.7"/>
  </filter>
  <filter height="200%" width="200%" y="-50%" x="-50%" id="svg_91_blur">
   <feGaussianBlur stdDeviation="3.9"/>
  </filter>
  <filter height="200%" width="200%" y="-50%" x="-50%" id="svg_92_blur">
   <feGaussianBlur stdDeviation="2.3"/>
  </filter>
  <filter height="200%" width="200%" y="-50%" x="-50%" id="svg_93_blur">
   <feGaussianBlur stdDeviation="2.8"/>
  </filter>
  <filter height="200%" width="200%" y="-50%" x="-50%" id="svg_94_blur">
   <feGaussianBlur stdDeviation="4.4"/>
  </filter>
  <filter height="200%" width="200%" y="-50%" x="-50%" id="svg_95_blur">
   <feGaussianBlur stdDeviation="4.3"/>
  </filter>
  <filter height="200%" width="200%" y="-50%" x="-50%" id="svg_96_blur">
   <feGaussianBlur stdDeviation="4.5"/>
  </filter>
  <filter height="200%" width="200%" y="-50%" x="-50%" id="svg_99_blur">
   <feGaussianBlur stdDeviation="10"/>
  </filter>
  <filter height="200%" width="200%" y="-50%" x="-50%" id="svg_100_blur">
   <feGaussianBlur stdDeviation="10"/>
  </filter>
  <filter height="200%" width="200%" y="-50%" x="-50%" id="svg_101_blur">
   <feGaussianBlur stdDeviation="10"/>
  </filter>
  <filter id="svg_102_blur">
   <feGaussianBlur stdDeviation="1.2"/>
  </filter>
 </defs>
 <g>
  <title>background</title>
  <rect x="-1" y="-1" width="701" height="388" id="canvas_background" fill="#fff"/>
  <g id="canvasGrid" display="none">
   <rect id="svg_1" width="100%" height="100%" x="0" y="0" stroke-width="0" fill="url(#gridpattern)"/>
  </g>
 </g>
 <g>
  <title>Layer 1</title>
  <rect stroke="#11229d" fill="#a6d8f4" stroke-width="1.5" stroke-opacity="0" x="-128.998657" y="-112.018988" width="952.666694" height="650.000001" id="svg_8"/>
  <path opacity="0.18" filter="url(#svg_101_blur)" id="svg_101" d="m178.500832,135.50718c150,-44 13,-150 91,-22c78,128 -108,213 93,86c201,-127 -146,-300 199,-127c345,173 546,224 94,122c-452,-102 -730,-112 -431,-137c299,-25 339,-129 300,-20c-39,109 -90,6 -28,75c62,69 51,76 -26,18c-77,-58 -132,-170 -67,-70c65,100 -33,241 37,55c70,-186 109,1 108.5,0.99107" stroke-opacity="0" stroke-width="74" stroke="#11229d" fill="#3293d3"/>
  <path stroke="#11229d" transform="rotate(8 274.6853332519526,173.04090881347653) " opacity="0.17" filter="url(#svg_100_blur)" id="svg_100" d="m-26.238078,73.62343c-25.98971,128 -230.36336,227 -27.17106,105c203.1923,-122 163.02638,-217 152.39423,-131c-10.63216,86 73.24373,-56 199.64825,70c126.40451,126 89.78264,-16 170.11448,80c80.33184,96 291.7936,-107 81.51319,74c-210.2804,181 408.74731,-108 -3.54405,-83c-412.29136,25 -287.06819,-322 -450.09457,-8c-163.02639,314 -96.87075,-235 -122.86047,-107z" stroke-opacity="0" stroke-width="74" fill="#6bbcea"/>
  <path stroke="#11229d" transform="rotate(-180 384.1990661621094,194.68565368652344) " filter="url(#svg_99_blur)" id="svg_99" d="m20.269435,276.81781c108.995188,-57.53023 -16.233324,52.57073 -2.319046,16.86231c13.914278,-35.70842 56.816646,-70.42494 35.945229,-56.53833c-20.871417,13.88661 -235.383201,-74.39254 76.528528,-46.61932c311.911729,27.77321 3.478569,55.54643 171.609427,39.67602c168.130858,-15.87041 332.783146,-7.93521 157.695149,3.9676c-175.087996,11.90281 -265.530803,-94.23055 -220.309399,-49.59503c45.221403,44.63553 115.952316,-38.68412 153.057056,23.80562c37.104741,62.48973 13.914278,166.63929 -25.509509,59.51403c-39.423787,-107.12526 230.745108,-173.58259 -52.178542,-75.38444c-282.92365,98.19815 193.640367,110.10096 -45.221403,41.65982c-238.86177,-68.44114 -202.916552,-156.72028 -238.86177,-68.44114c-35.945218,88.27915 -77.688051,-8.9271 -57.976158,92.24675c19.711894,101.17386 6.957139,158.70409 38.264264,91.25485c31.307125,-67.44923 -18.55237,-96.21435 49.859496,-90.26295c68.411866,5.95141 -271.328418,34.71652 68.411866,5.95141c339.740284,-28.76512 41.742834,158.70408 344.378377,-30.74892c302.635544,-189.453 309.592682,-223.17762 308.433159,-223.17762c-1.159523,0 134.504686,291.61876 -230.745108,198.38011c-365.249794,-93.23865 -336.261715,-236.07233 -401.195012,-64.47354c-64.933297,171.59879 287.561742,77.36824 -82.326144,156.72029" opacity="0.18" stroke-opacity="0" stroke-width="74" fill="#55a8db"/>
  <path fill="none" stroke="#11229d" stroke-width="1.5" stroke-opacity="0" id="svg_10" d="m129.500016,145.98994c-1,-1 -2,-1 -3,-1c-1,0 -2.48626,0.82375 -3,3c-0.4595,1.9465 -1,5 -1,7c0,2 0.07612,3.38268 1,3c1.30656,-0.54119 2,-1 3,-2l1,0"/>
  <line stroke="#11229d" stroke-linecap="null" stroke-linejoin="null" id="svg_5" y2="397.989938" x2="397.50133" y1="380.989938" x1="224.50133" stroke-opacity="0" fill="none"/>
  <ellipse stroke="#11229d" filter="url(#svg_13_blur)" ry="310.999965" rx="309.99999" id="svg_13" cy="557.989988" cx="342.501332" stroke-opacity="0" stroke-width="1.5" fill="#ffffff"/>
  <ellipse filter="url(#svg_14_blur)" stroke="#11229d" ry="298.499989" rx="295.499989" id="svg_14" cy="566.491466" cx="347.998825" stroke-opacity="0" stroke-width="1.5" fill="#8bccf4"/>
  <rect filter="url(#svg_40_blur)" stroke="#11229d" transform="rotate(-101 241.52690124511724,337.0559692382813) " id="svg_55" height="1.858468" width="172.000007" y="336.126729" x="155.526666" stroke-opacity="0" stroke-width="74" fill="#3293d3"/>
  <line stroke="#11229d" stroke-linecap="null" stroke-linejoin="null" id="svg_17" y2="368.989938" x2="349.501324" y1="145.989938" x1="323.501323" stroke-opacity="0" stroke-width="1.5" fill="none"/>
  <rect stroke="#11229d" filter="url(#svg_40_blur)" transform="rotate(-151 211.5411376953125,387.0301818847656) " id="svg_45" height="1.858468" width="110.226247" y="386.100971" x="156.427776" stroke-opacity="0" stroke-width="74" fill="#3293d3"/>
  <rect filter="url(#svg_40_blur)" stroke="#11229d" transform="rotate(-21 336.1929931640624,383.7225341796875) " id="svg_40" height="1.858468" width="172.000007" y="382.793313" x="250.193499" stroke-opacity="0" stroke-width="74" fill="#3293d3"/>
  <rect filter="url(#svg_40_blur)" stroke="#11229d" transform="rotate(-42 190.5269012451174,474.0559692382813) " id="svg_44" height="1.858468" width="172.000007" y="473.126729" x="104.526666" stroke-opacity="0" stroke-width="74" fill="#02afdb"/>
  <rect filter="url(#svg_40_blur)" stroke="#11229d" transform="rotate(-43 100.52651977539068,420.05596923828125) " id="svg_51" height="1.858468" width="172.000007" y="419.126729" x="14.526666" stroke-opacity="0" stroke-width="74" fill="#3293d3"/>
  <rect stroke="#11229d" filter="url(#svg_40_blur)" transform="rotate(16 130.95578002929682,350.1551208496094) " id="svg_53" height="1.858468" width="71.512788" y="349.225906" x="95.199487" stroke-opacity="0" stroke-width="74" fill="#3293d3"/>
  <rect transform="rotate(96 246.5269012451172,502.0559692382813) " stroke="#11229d" filter="url(#svg_40_blur)" id="svg_43" height="1.858468" width="172.000007" y="501.126729" x="160.526666" stroke-opacity="0" stroke-width="74" fill="#02afdb"/>
  <rect transform="rotate(39 326.5261535644533,472.05596923828114) " filter="url(#svg_40_blur)" stroke="#11229d" id="svg_42" height="1.858468" width="172.000007" y="471.126729" x="240.526666" stroke-opacity="0" stroke-width="74" fill="#02afdb"/>
  <ellipse ry="9" rx="9" id="svg_31" cy="412.989938" cx="260.499331" stroke-opacity="0" stroke-width="1.5" stroke="#11229d" fill="#00cbff"/>
  <rect filter="url(#svg_40_blur)" stroke="#11229d" transform="rotate(39 484.1929321289063,409.05590820312506) " id="svg_46" height="1.858468" width="172.000007" y="408.126667" x="398.193468" stroke-opacity="0" stroke-width="74" fill="#3293d3"/>
  <ellipse filter="url(#svg_32_blur)" opacity="0.78" ry="9" rx="9" id="svg_32" cy="413.989938" cx="260.499331" stroke-opacity="0" stroke-width="1.5" stroke="#11229d" fill="#ffffff"/>
  <rect filter="url(#svg_40_blur)" transform="rotate(-146 476.0402526855469,304.44311523437506) " id="svg_63" height="1.858468" width="166.314436" y="303.513854" x="392.883562" stroke-opacity="0" stroke-width="74" fill="#3293d3" stroke="#11229d"/>
  <rect stroke="#11229d" filter="url(#svg_40_blur)" transform="rotate(29 323.42547607421875,301.75531005859375) " id="svg_56" height="1.858468" width="214.076755" y="300.826086" x="216.387614" stroke-opacity="0" stroke-width="74" fill="#3293d3"/>
  <rect filter="url(#svg_40_blur)" stroke="#11229d" transform="rotate(-84 407.6119995117188,439.1745910644532) " id="svg_41" height="1.858468" width="165.757099" y="438.245353" x="324.734" stroke-opacity="0" stroke-width="74" fill="#3293d3"/>
  <rect stroke="#11229d" transform="rotate(-3 479.44561767577784,351.4609680175779) " filter="url(#svg_40_blur)" id="svg_61" height="1.858468" width="117.987558" y="350.531771" x="420.452351" stroke-opacity="0" stroke-width="74" fill="#3293d3"/>
  <rect stroke="#11229d" filter="url(#svg_40_blur)" transform="rotate(-97 410.06665039062494,305.0615539550781) " id="svg_60" height="1.858468" width="97.928594" y="304.13231" x="361.10288" stroke-opacity="0" stroke-width="74" fill="#3293d3"/>
  <rect opacity="0.9" filter="url(#svg_40_blur)" stroke="#11229d" transform="rotate(-27 461.5248107910156,500.0563964843751) " id="svg_47" height="1.858468" width="172.000007" y="499.126729" x="375.525351" stroke-opacity="0" stroke-width="74" fill="#00cbff"/>
  <rect opacity="0.9" filter="url(#svg_40_blur)" stroke="#11229d" transform="rotate(-124 585.5263671875001,534.0563964843751) " id="svg_48" height="1.858468" width="172.000007" y="533.126729" x="499.525351" stroke-opacity="0" stroke-width="74" fill="#00cbff"/>
  <rect stroke="#11229d" filter="url(#svg_40_blur)" transform="rotate(-62 194.15632629394537,306.0608215332032) " id="svg_54" height="1.858468" width="127.818134" y="305.1316" x="130.247018" stroke-opacity="0" stroke-width="74" fill="#3293d3"/>
  <rect filter="url(#svg_40_blur)" stroke="#11229d" transform="rotate(-78 145.52671813964838,446.0559387207031) " id="svg_50" height="1.858468" width="172.000007" y="445.126729" x="59.526666" stroke-opacity="0" stroke-width="74" fill="#3293d3"/>
  <rect stroke="#11229d" filter="url(#svg_40_blur)" transform="rotate(-36 161.28312683105474,293.9676513671875) " id="svg_66" height="1.858468" width="154.353451" y="293.038414" x="84.106165" stroke-opacity="0" stroke-width="74" fill="#3293d3"/>
  <rect stroke="#11229d" filter="url(#svg_40_blur)" transform="rotate(-58 24.733575820922837,455.58740234375) " id="svg_52" height="1.858468" width="269.183588" y="454.658176" x="-109.858251" stroke-opacity="0" stroke-width="74" fill="#3293d3"/>
  <rect filter="url(#svg_40_blur)" stroke="#11229d" transform="rotate(2 315.52615356445364,252.05595397949168) " id="svg_57" height="1.858468" width="172.000007" y="251.126729" x="229.526666" stroke-opacity="0" stroke-width="74" fill="#3293d3"/>
  <rect stroke="#11229d" filter="url(#svg_58_blur)" transform="rotate(-10 276.8725585937499,239.06893920898415) " id="svg_58" height="1.858468" width="110.423382" y="238.139707" x="221.661123" stroke-opacity="0" stroke-width="74" fill="#3293d3"/>
  <rect stroke="#11229d" filter="url(#svg_40_blur)" transform="rotate(19 367.98767089843744,241.05125427246105) " id="svg_59" height="1.858468" width="73.820518" y="240.122031" x="331.077927" stroke-opacity="0" stroke-width="74" fill="#3293d3"/>
  <rect stroke="#11229d" filter="url(#svg_40_blur)" transform="rotate(-98 548.5809936523438,402.41146850585943) " id="svg_62" height="1.858468" width="107.143733" y="401.482219" x="495.008099" stroke-opacity="0" stroke-width="74" fill="#3293d3"/>
  <ellipse ry="9" rx="9" id="svg_34" cy="354.323159" cx="415.501361" stroke-opacity="0" stroke-width="74" stroke="#11229d" fill="#2db2ff"/>
  <rect transform="rotate(19.578779220581055 621.5263671875002,490.0559692382813) " opacity="0.9" filter="url(#svg_40_blur)" stroke="#11229d" id="svg_64" height="1.858468" width="172.000007" y="489.126729" x="535.525351" stroke-opacity="0" stroke-width="74" fill="#00cbff"/>
  <ellipse filter="url(#svg_102_blur)" opacity="0.32" stroke="#11229d" ry="2.5" rx="2.5" id="svg_118" cy="183.855996" cx="538.801545" fill-opacity="null" stroke-opacity="0" stroke-width="74" fill="#ffffff"/>
  <ellipse filter="url(#svg_102_blur)" opacity="0.36" stroke="#11229d" ry="2.5" rx="2.5" id="svg_3" cy="220.156304" cx="611.668442" fill-opacity="null" stroke-opacity="0" stroke-width="74" fill="#ffffff"/>
  <rect stroke="#11229d" filter="url(#svg_40_blur)" transform="rotate(-125 592.8292846679688,418.6466674804687) " id="svg_65" height="1.858468" width="170.641853" y="417.717434" x="507.507312" stroke-opacity="0" stroke-width="74" fill="#3293d3"/>
  <rect transform="rotate(1 451.9125061035143,255.5408935546889) " stroke="#11229d" filter="url(#svg_40_blur)" id="svg_67" height="1.858468" width="98.900231" y="254.611649" x="402.462911" stroke-opacity="0" stroke-width="74" fill="#3293d3"/>
  <rect stroke="#11229d" transform="rotate(-113 522.741943359375,302.2317199707031) " filter="url(#svg_40_blur)" id="svg_68" height="1.858468" width="99.196571" y="301.302508" x="473.143676" stroke-opacity="0" stroke-width="74" fill="#3293d3"/>
  <rect stroke="#11229d" filter="url(#svg_58_blur)" transform="rotate(-35 418.95846557617193,244.13128662109378) " id="svg_85" height="1.858468" width="38.366586" y="243.202056" x="399.775697" stroke-opacity="0" stroke-width="74" fill="#3293d3"/>
  <rect transform="rotate(3 384.1842956542973,230.55715942382727) " filter="url(#svg_40_blur)" id="svg_69" height="1.858468" width="99.393397" y="229.627946" x="334.488136" stroke-opacity="0" stroke-width="74" fill="#3293d3" stroke="#11229d"/>
  <rect stroke="#11229d" filter="url(#svg_58_blur)" transform="rotate(-160 468.0506896972656,244.5449371337891) " id="svg_84" height="1.858468" width="70.362154" y="243.615717" x="432.870141" stroke-opacity="0" stroke-width="74" fill="#3293d3"/>
  <ellipse stroke="#11229d" filter="url(#svg_77_blur)" ry="4.666648" rx="4.5" id="svg_82" cy="233.656615" cx="433.668069" stroke-opacity="0" stroke-width="74" fill="#2db2ff"/>
  <rect transform="rotate(-139 562.4906616210936,307.59197998046875) " stroke="#11229d" filter="url(#svg_40_blur)" id="svg_70" height="1.858468" width="157.173431" y="306.662736" x="483.902992" stroke-opacity="0" stroke-width="74" fill="#3293d3"/>
  <rect transform="rotate(9 581.2610473632815,352.768493652344) " filter="url(#svg_40_blur)" id="svg_71" height="1.858468" width="78.02235" y="351.839286" x="542.248872" stroke-opacity="0" stroke-width="74" fill="#3293d3" stroke="#11229d"/>
  <rect filter="url(#svg_40_blur)" stroke="#11229d" transform="rotate(-106 643.862060546875,442.05651855468744) " id="svg_72" height="1.858468" width="172.000007" y="441.127291" x="557.861019" stroke-opacity="0" stroke-width="74" fill="#3293d3"/>
  <ellipse stroke="#11229d" filter="url(#svg_73_blur)" ry="7" rx="7" id="svg_73" cy="247.989938" cx="225.75133" stroke-opacity="0" stroke-width="74" fill="#2db2ff"/>
  <ellipse filter="url(#svg_102_blur)" opacity="0.46" stroke="#11229d" ry="2.5" rx="2.5" id="svg_102" cy="136.819731" cx="76.996986" fill-opacity="null" stroke-opacity="0" stroke-width="74" fill="#ffffff"/>
  <ellipse stroke="#11229d" filter="url(#svg_73_blur)" ry="7" rx="7" id="svg_74" cy="341.323272" cx="96.417948" stroke-opacity="0" stroke-width="74" fill="#2db2ff"/>
  <ellipse stroke="#11229d" filter="url(#svg_73_blur)" ry="7" rx="7" id="svg_76" cy="358.822077" cx="619.252078" stroke-opacity="0" stroke-width="74" fill="#2db2ff"/>
  <ellipse filter="url(#svg_77_blur)" ry="9" rx="9" id="svg_77" cy="361.322774" cx="163.835156" stroke-opacity="0" stroke-width="74" stroke="#11229d" fill="#2db2ff"/>
  <ellipse filter="url(#svg_77_blur)" ry="9" rx="9" id="svg_78" cy="346.322805" cx="541.334901" stroke-opacity="0" stroke-width="74" stroke="#11229d" fill="#2db2ff"/>
  <ellipse filter="url(#svg_77_blur)" ry="9" rx="9" id="svg_79" cy="460.989938" cx="536.500015" stroke-opacity="0" stroke-width="74" stroke="#11229d" fill="#00cbff"/>
  <ellipse stroke="#11229d" filter="url(#svg_73_blur)" ry="7" rx="7" id="svg_75" cy="255.157333" cx="405.084645" stroke-opacity="0" stroke-width="74" fill="#2db2ff"/>
  <ellipse stroke="#11229d" filter="url(#svg_77_blur)" ry="5" rx="5" id="svg_80" cy="228.823505" cx="334.834183" stroke-opacity="0" stroke-width="74" fill="#2db2ff"/>
  <ellipse opacity="0.9" ry="9" rx="9" id="svg_35" cy="346.323442" cx="541.164152" stroke-opacity="0" stroke-width="1.5" stroke="#11229d" fill="#ffffff" filter="url(#svg_35_blur)"/>
  <ellipse stroke="#11229d" filter="url(#svg_77_blur)" ry="5" rx="5" id="svg_81" cy="256.655648" cx="502.334939" stroke-opacity="0" stroke-width="74" fill="#2db2ff"/>
  <ellipse filter="url(#svg_86_blur)" stroke="#11229d" ry="7" rx="7" id="svg_86" cy="341.656579" cx="96.584872" stroke-opacity="0" stroke-width="74" fill="#ffffff"/>
  <ellipse filter="url(#svg_87_blur)" opacity="0.83" ry="9" rx="9" id="svg_87" cy="353.989666" cx="415.827301" stroke-opacity="0" stroke-width="74" stroke="#11229d" fill="#ffffff"/>
  <ellipse filter="url(#svg_88_blur)" stroke="#11229d" opacity="0.97" ry="7" rx="7" id="svg_88" cy="248.657051" cx="225.917757" stroke-opacity="0" stroke-width="74" fill="#ffffff"/>
  <ellipse stroke="#11229d" opacity="0.94" ry="5" rx="5" id="svg_89" cy="229.323268" cx="335.001081" stroke-opacity="0" stroke-width="74" fill="#ffffff" filter="url(#svg_89_blur)"/>
  <ellipse filter="url(#svg_92_blur)" stroke="#11229d" opacity="0.86" ry="4.000002" rx="4.5" id="svg_92" cy="233.989939" cx="433.668069" stroke-opacity="0" stroke-width="74" fill="#ffffff"/>
  <ellipse filter="url(#svg_93_blur)" stroke="#11229d" opacity="0.98" ry="5" rx="5" id="svg_93" cy="256.322328" cx="502.501833" stroke-opacity="0" stroke-width="74" fill="#ffffff"/>
  <ellipse filter="url(#svg_94_blur)" opacity="0.87" ry="9" rx="9" id="svg_94" cy="361.82208" cx="163.846872" stroke-opacity="0" stroke-width="74" stroke="#11229d" fill="#ffffff"/>
  <ellipse filter="url(#svg_95_blur)" stroke="#11229d" opacity="0.97" ry="7" rx="7" id="svg_95" cy="358.988479" cx="619.251589" stroke-opacity="0" stroke-width="74" fill="#ffffff"/>
  <ellipse filter="url(#svg_96_blur)" opacity="0.84" ry="9" rx="9" id="svg_96" cy="460.989938" cx="536.500015" stroke-opacity="0" stroke-width="74" stroke="#11229d" fill="#ffffff"/>
  <ellipse filter="url(#svg_102_blur)" opacity="0.36" stroke="#11229d" ry="2.5" rx="2.5" id="svg_113" cy="303.156615" cx="83.668007" fill-opacity="null" stroke-opacity="0" stroke-width="74" fill="#ffffff"/>
  <ellipse filter="url(#svg_102_blur)" opacity="0.44" stroke="#11229d" ry="2.5" rx="2.5" id="svg_114" cy="222.489938" cx="136.002014" stroke-opacity="0" stroke-width="74" fill="#ffffff"/>
  <ellipse filter="url(#svg_102_blur)" opacity="0.44" stroke="#11229d" ry="2.5" rx="2.5" id="svg_115" cy="272.935754" cx="577.824502" fill-opacity="null" stroke-opacity="0" stroke-width="74" fill="#ffffff"/>
  <ellipse filter="url(#svg_102_blur)" opacity="0.42" stroke="#11229d" ry="2.5" rx="2.5" id="svg_116" cy="104.754693" cx="590.872512" fill-opacity="null" stroke-opacity="0" stroke-width="74" fill="#ffffff"/>
  <ellipse filter="url(#svg_102_blur)" opacity="0.42" stroke="#11229d" ry="2.5" rx="2.5" id="svg_117" cy="162.310925" cx="301.015376" fill-opacity="null" stroke-opacity="0" stroke-width="74" fill="#ffffff"/>
  <ellipse filter="url(#svg_102_blur)" opacity="0.38" stroke="#11229d" ry="2.5" rx="2.5" id="svg_119" cy="137.84075" cx="204.363821" fill-opacity="null" stroke-opacity="0" stroke-width="74" fill="#ffffff"/>
  <ellipse filter="url(#svg_102_blur)" opacity="0.45" stroke="#11229d" ry="2.5" rx="2.5" id="svg_120" cy="47.995745" cx="343.159265" fill-opacity="null" stroke-opacity="0" stroke-width="74" fill="#ffffff"/>
  <ellipse filter="url(#svg_102_blur)" opacity="0.4" stroke="#11229d" ry="2.5" rx="2.5" id="svg_2" cy="147.825036" cx="432.647889" fill-opacity="null" stroke-opacity="0" stroke-width="74" fill="#ffffff"/>
  <ellipse stroke="#11229d" ry="7" rx="7" id="svg_91" cy="255.823981" cx="405.084652" stroke-opacity="0" stroke-width="74" fill="#ffffff" filter="url(#svg_91_blur)"/>
  <ellipse filter="url(#svg_102_blur)" opacity="0.39" stroke="#11229d" ry="2.5" rx="2.5" id="svg_22" cy="23.159954" cx="164.515571" fill-opacity="null" stroke-opacity="0" stroke-width="74" fill="#ffffff"/>
  <ellipse filter="url(#svg_102_blur)" opacity="0.44" stroke="#11229d" ry="2.5" rx="2.5" id="svg_23" cy="27.826787" cx="601.173602" fill-opacity="null" stroke-opacity="0" stroke-width="74" fill="#ffffff"/>
  <ellipse filter="url(#svg_102_blur)" opacity="0.44" stroke="#11229d" ry="2.5" rx="2.5" id="svg_24" cy="39.644957" cx="491.512329" fill-opacity="null" stroke-opacity="0" stroke-width="74" fill="#ffffff"/>
  <ellipse filter="url(#svg_102_blur)" opacity="0.41" stroke="#11229d" ry="2.5" rx="2.5" id="svg_26" cy="47.660832" cx="50.575225" fill-opacity="null" stroke-opacity="0" stroke-width="74" fill="#ffffff"/>
 </g>
</svg>