<svg width="699" height="386" xmlns="http://www.w3.org/2000/svg">
 <!-- Created with Method Draw - http://github.com/duopixel/Method-Draw/ -->
 <defs>
  <filter id="svg_32_blur" x="-50%" y="-50%" width="200%" height="200%">
   <feGaussianBlur stdDeviation="4.3"/>
  </filter>
  <filter id="svg_40_blur" x="-50%" y="-50%" width="200%" height="200%">
   <feGaussianBlur stdDeviation="0"/>
  </filter>
  <filter id="svg_77_blur" x="-50%" y="-50%" width="200%" height="200%">
   <feGaussianBlur stdDeviation="0"/>
  </filter>
  <filter id="svg_96_blur" x="-50%" y="-50%" width="200%" height="200%">
   <feGaussianBlur stdDeviation="4.5"/>
  </filter>
  <filter id="svg_99_blur" x="-50%" y="-50%" width="200%" height="200%">
   <feGaussianBlur stdDeviation="10"/>
  </filter>
  <filter id="svg_100_blur" x="-50%" y="-50%" width="200%" height="200%">
   <feGaussianBlur stdDeviation="10"/>
  </filter>
  <filter id="svg_101_blur" x="-50%" y="-50%" width="200%" height="200%">
   <feGaussianBlur stdDeviation="10"/>
  </filter>
 </defs>
 <g>
  <title>background</title>
  <rect fill="#fff" id="canvas_background" height="388" width="701" y="-1" x="-1"/>
  <g display="none" id="canvasGrid">
   <rect fill="url(#gridpattern)" stroke-width="0" y="0" x="0" height="100%" width="100%" id="svg_1"/>
  </g>
 </g>
 <g>
  <title>Layer 1</title>
  <rect id="svg_8" height="650.000001" width="952.666694" y="-111.686058" x="-128.665727" stroke-opacity="0" stroke-width="1.5" fill="#a6d8f4" stroke="#11229d"/>
  <path fill="#3293d3" stroke="#11229d" stroke-width="74" stroke-opacity="0" d="m178.50083,135.50718c150,-44 13,-150 91,-22c78,128 -108,213 93,86c201,-127 -146,-300 199,-127c345,173 546,224 94,122c-452,-102 -730,-112 -431,-137c299,-25 339,-129 300,-20c-39,109 -90,6 -28,75c62,69 51,76 -26,18c-77,-58 -132,-170 -67,-70c65,100 -33,241 37,55c70,-186 109,1 108.5,0.99107" id="svg_101" filter="url(#svg_101_blur)" opacity="0.18"/>
  <path fill="#6bbcea" stroke-width="74" stroke-opacity="0" d="m-26.23808,73.62343c-25.98971,128 -230.36336,227 -27.17106,105c203.1923,-122 163.02638,-217 152.39423,-131c-10.63216,86 73.24373,-56 199.64825,70c126.40451,126 89.78264,-16 170.11448,80c80.33184,96 291.7936,-107 81.51319,74c-210.2804,181 408.74731,-108 -3.54405,-83c-412.29136,25 -287.06819,-322 -450.09457,-8c-163.02639,314 -96.87075,-235 -122.86047,-107z" id="svg_100" filter="url(#svg_100_blur)" opacity="0.17" transform="rotate(8 274.6853332519526,173.04090881347653) " stroke="#11229d"/>
  <path fill="#55a8db" stroke-width="74" stroke-opacity="0" opacity="0.18" d="m20.26944,276.81781c108.99518,-57.53023 -16.23333,52.57073 -2.31905,16.86231c13.91428,-35.70842 56.81664,-70.42494 35.94523,-56.53833c-20.87142,13.88661 -235.3832,-74.39254 76.52853,-46.61932c311.91172,27.77321 3.47857,55.54643 171.60942,39.67602c168.13086,-15.87041 332.78315,-7.93521 157.69515,3.9676c-175.08799,11.90281 -265.5308,-94.23055 -220.3094,-49.59503c45.22141,44.63553 115.95232,-38.68412 153.05706,23.80562c37.10474,62.48973 13.91428,166.63929 -25.50951,59.51403c-39.42379,-107.12526 230.74511,-173.58259 -52.17854,-75.38444c-282.92365,98.19815 193.64037,110.10096 -45.2214,41.65982c-238.86177,-68.44114 -202.91656,-156.72028 -238.86177,-68.44114c-35.94522,88.27915 -77.68806,-8.9271 -57.97616,92.24675c19.71189,101.17386 6.95714,158.70409 38.26426,91.25485c31.30713,-67.44923 -18.55237,-96.21435 49.8595,-90.26295c68.41186,5.95141 -271.32842,34.71652 68.41186,5.95141c339.74029,-28.76512 41.74284,158.70408 344.37838,-30.74892c302.63554,-189.453 309.59268,-223.17762 308.43316,-223.17762c-1.15952,0 134.50469,291.61876 -230.74511,198.38011c-365.24979,-93.23865 -336.26171,-236.07233 -401.19501,-64.47354c-64.9333,171.59879 287.56174,77.36824 -82.32614,156.72029" id="svg_99" filter="url(#svg_99_blur)" transform="rotate(-180 384.1990661621094,194.68565368652344) " stroke="#11229d"/>
  <path d="m129.50002,145.98994c-1,-1 -2,-1 -3,-1c-1,0 -2.48626,0.82375 -3,3c-0.4595,1.9465 -1,5 -1,7c0,2 0.07612,3.38268 1,3c1.30656,-0.54119 2,-1 3,-2l1,0" id="svg_10" stroke-opacity="0" stroke-width="1.5" stroke="#11229d" fill="none"/>
  <line fill="none" stroke-opacity="0" x1="224.50133" y1="380.989938" x2="397.50133" y2="397.989938" id="svg_5" stroke-linejoin="null" stroke-linecap="null" stroke="#11229d"/>
  <line fill="none" stroke-width="1.5" stroke-opacity="0" x1="323.501323" y1="145.989938" x2="349.501324" y2="368.989938" id="svg_17" stroke-linejoin="null" stroke-linecap="null" stroke="#11229d"/>
  <rect fill="#02afdb" stroke-width="74" stroke-opacity="0" x="104.526666" y="473.126729" width="172.000007" height="1.858468" id="svg_44" transform="rotate(-42 190.5269012451174,474.0559692382813) " stroke="#11229d" filter="url(#svg_40_blur)"/>
  <rect fill="#02afdb" stroke-width="74" stroke-opacity="0" x="160.526666" y="501.126729" width="172.000007" height="1.858468" id="svg_43" filter="url(#svg_40_blur)" stroke="#11229d" transform="rotate(96 246.5269012451172,502.0559692382813) "/>
  <rect fill="#02afdb" stroke-width="74" stroke-opacity="0" x="240.526666" y="471.126729" width="172.000007" height="1.858468" id="svg_42" stroke="#11229d" filter="url(#svg_40_blur)" transform="rotate(39 326.5261535644533,472.05596923828114) "/>
  <ellipse fill="#00cbff" stroke="#11229d" stroke-width="1.5" stroke-opacity="0" cx="260.499331" cy="412.989938" id="svg_31" rx="9" ry="9"/>
  <ellipse fill="#ffffff" stroke="#11229d" stroke-width="1.5" stroke-opacity="0" cx="260.499331" cy="413.989938" id="svg_32" rx="9" ry="9" opacity="0.78" filter="url(#svg_32_blur)"/>
  <rect fill="#00cbff" stroke-width="74" stroke-opacity="0" x="375.525351" y="499.126729" width="172.000007" height="1.858468" id="svg_47" transform="rotate(-27 461.5248107910156,500.0563964843751) " stroke="#11229d" filter="url(#svg_40_blur)" opacity="0.9"/>
  <rect fill="#00cbff" stroke-width="74" stroke-opacity="0" x="499.525351" y="533.126729" width="172.000007" height="1.858468" id="svg_48" transform="rotate(-124 585.5263671875001,534.0563964843751) " stroke="#11229d" filter="url(#svg_40_blur)" opacity="0.9"/>
  <rect fill="#00cbff" stroke-width="74" stroke-opacity="0" x="535.525351" y="489.126729" width="172.000007" height="1.858468" id="svg_64" stroke="#11229d" filter="url(#svg_40_blur)" opacity="0.9" transform="rotate(19.578779220581055 621.5263671875002,490.0559692382813) "/>
  <ellipse fill="#00cbff" stroke="#11229d" stroke-width="74" stroke-opacity="0" cx="536.500015" cy="460.989938" id="svg_79" rx="9" ry="9" filter="url(#svg_77_blur)"/>
  <ellipse fill="#ffffff" stroke="#11229d" stroke-width="74" stroke-opacity="0" cx="536.500015" cy="460.989938" id="svg_96" rx="9" ry="9" opacity="0.84" filter="url(#svg_96_blur)"/>
 </g>
</svg>