<svg width="580" height="400" xmlns="http://www.w3.org/2000/svg">
 <!-- Created with Method Draw - http://github.com/duopixel/Method-Draw/ -->
 <defs>
  <filter height="200%" width="200%" y="-50%" x="-50%" id="svg_14_blur">
   <feGaussianBlur stdDeviation="1"/>
  </filter>
  <filter id="svg_13_blur" x="-50%" y="-50%" width="200%" height="200%">
   <feGaussianBlur stdDeviation="10"/>
  </filter>
  <filter id="svg_32_blur" x="-50%" y="-50%" width="200%" height="200%">
   <feGaussianBlur stdDeviation="4.3"/>
  </filter>
  <filter id="svg_35_blur" x="-50%" y="-50%" width="200%" height="200%">
   <feGaussianBlur stdDeviation="4.5"/>
  </filter>
  <filter id="svg_40_blur" x="-50%" y="-50%" width="200%" height="200%">
   <feGaussianBlur stdDeviation="0"/>
  </filter>
  <filter id="svg_58_blur">
   <feGaussianBlur stdDeviation="0"/>
  </filter>
  <filter id="svg_73_blur" x="-50%" y="-50%" width="200%" height="200%">
   <feGaussianBlur stdDeviation="0"/>
  </filter>
  <filter id="svg_77_blur" x="-50%" y="-50%" width="200%" height="200%">
   <feGaussianBlur stdDeviation="0"/>
  </filter>
  <filter id="svg_86_blur" x="-50%" y="-50%" width="200%" height="200%">
   <feGaussianBlur stdDeviation="4.4"/>
  </filter>
  <filter id="svg_87_blur" x="-50%" y="-50%" width="200%" height="200%">
   <feGaussianBlur stdDeviation="4.3"/>
  </filter>
  <filter id="svg_88_blur" x="-50%" y="-50%" width="200%" height="200%">
   <feGaussianBlur stdDeviation="4.3"/>
  </filter>
  <filter id="svg_89_blur" x="-50%" y="-50%" width="200%" height="200%">
   <feGaussianBlur stdDeviation="2.7"/>
  </filter>
  <filter id="svg_91_blur" x="-50%" y="-50%" width="200%" height="200%">
   <feGaussianBlur stdDeviation="3.9"/>
  </filter>
  <filter id="svg_92_blur" x="-50%" y="-50%" width="200%" height="200%">
   <feGaussianBlur stdDeviation="2.3"/>
  </filter>
  <filter id="svg_93_blur" x="-50%" y="-50%" width="200%" height="200%">
   <feGaussianBlur stdDeviation="2.8"/>
  </filter>
  <filter id="svg_94_blur" x="-50%" y="-50%" width="200%" height="200%">
   <feGaussianBlur stdDeviation="4.4"/>
  </filter>
  <filter id="svg_95_blur" x="-50%" y="-50%" width="200%" height="200%">
   <feGaussianBlur stdDeviation="4.3"/>
  </filter>
  <filter id="svg_96_blur" x="-50%" y="-50%" width="200%" height="200%">
   <feGaussianBlur stdDeviation="4.5"/>
  </filter>
  <filter id="svg_99_blur" x="-50%" y="-50%" width="200%" height="200%">
   <feGaussianBlur stdDeviation="10"/>
  </filter>
  <filter id="svg_100_blur" x="-50%" y="-50%" width="200%" height="200%">
   <feGaussianBlur stdDeviation="10"/>
  </filter>
  <filter id="svg_101_blur" x="-50%" y="-50%" width="200%" height="200%">
   <feGaussianBlur stdDeviation="10"/>
  </filter>
  <filter id="svg_102_blur">
   <feGaussianBlur stdDeviation="1.2"/>
  </filter>
 </defs>
 <g>
  <title>background</title>
  <rect fill="#fff" id="canvas_background" height="402" width="582" y="-1" x="-1"/>
  <g display="none" id="canvasGrid">
   <rect fill="url(#gridpattern)" stroke-width="0" y="0" x="0" height="100%" width="100%" id="svg_1"/>
  </g>
 </g>
 <g>
  <title>Layer 1</title>
  <rect stroke="#11229d" id="svg_8" height="650.000001" width="857.999988" y="-112.018988" x="-184.997989" stroke-opacity="0" stroke-width="1.5" fill="#d8f7ff"/>
  <path fill="#31dcf7" stroke="#11229d" stroke-width="74" stroke-opacity="0" d="m122.501499,135.507181c150,-44 13,-150 91,-22c78,128 -108,213 93,86c201,-127 -146,-300 199,-127c345,173 546,224 94,122c-452,-102 -730,-112 -431,-137c299,-25 339,-129 300,-20c-39,109 -90,6 -28,75c62,69 51,76 -26,18c-77,-58 -132,-170 -67,-70c65,100 -33,241 37,55c70,-186 109,1 108.5,0.99107" id="svg_101" filter="url(#svg_101_blur)" opacity="0.18"/>
  <path fill="#baf2ff" stroke-width="74" stroke-opacity="0" d="m-82.237411,73.623434c-25.98971,128 -230.36336,227 -27.17106,105c203.1923,-122 163.02638,-217 152.39423,-131c-10.63216,86 73.24373,-56 199.64825,70c126.40451,126 89.78264,-16 170.11448,80c80.33184,96 291.7936,-107 81.51319,74c-210.2804,181 408.74731,-108 -3.54405,-83c-412.29136,25 -287.06819,-322 -450.09457,-8c-163.02639,314 -96.87075,-235 -122.86047,-107z" id="svg_100" filter="url(#svg_100_blur)" opacity="0.17" transform="rotate(8 218.68595886230446,173.041030883789) " stroke="#11229d"/>
  <path stroke="#11229d" fill="#aaf5ff" stroke-width="74" stroke-opacity="0" opacity="0.18" d="m42.006245,276.817813c94,-57.530231 -14,52.570728 -2,16.862309c12,-35.708419 49,-70.424937 31,-56.53833c-18,13.886607 -203,-74.39254 66,-46.619325c269,27.773215 3,55.54643 148,39.676021c145,-15.870408 287,-7.935204 136,3.967602c-151,11.902806 -229,-94.23055 -190,-49.595026c39,44.635524 100,-38.684121 132,23.805613c32,62.489733 12,166.639289 -22,59.514032c-34,-107.125257 199,-173.582592 -45,-75.38444c-244,98.198152 167,110.100959 -39,41.659822c-206,-68.441136 -175,-156.720283 -206,-68.441136c-31,88.279147 -67,-8.927105 -50,92.246749c17,101.173854 6,158.704084 33,91.254849c27,-67.449236 -16,-96.214351 43,-90.262948c59,5.951403 -234,34.716518 59,5.951403c293,-28.765115 36,158.704084 297,-30.748916c261,-189.453001 267,-223.177619 266,-223.177619c-1,0 116,291.618755 -199,198.380105c-315,-93.23865 -290,-236.072325 -346,-64.473534c-56,171.598791 248,77.368241 -71,156.720283" id="svg_99" filter="url(#svg_99_blur)" transform="rotate(-180 355.86761474609375,194.68576049804688) "/>
  <path d="m95.5,145.98994c-1,-1 -2,-1 -3,-1c-1,0 -2.48626,0.82375 -3,3c-0.4595,1.9465 -1,5 -1,7c0,2 0.07612,3.38268 1,3c1.30656,-0.54119 2,-1 3,-2l1,0" id="svg_10" stroke-opacity="0" stroke-width="1.5" stroke="#11229d" fill="none"/>
  <line fill="none" stroke-opacity="0" x1="168.501998" y1="380.989938" x2="341.501998" y2="397.989938" id="svg_5" stroke-linejoin="null" stroke-linecap="null" stroke="#11229d"/>
  <ellipse fill="#ffffff" stroke-width="1.5" stroke-opacity="0" cx="286.502" cy="557.989988" id="svg_13" rx="309.99999" ry="310.999965" filter="url(#svg_13_blur)" stroke="#11229d"/>
  <ellipse fill="#7bd6ed" stroke-width="1.5" stroke-opacity="0" cx="291.999493" cy="566.491466" id="svg_14" rx="295.499989" ry="298.499989" stroke="#11229d" filter="url(#svg_14_blur)"/>
  <rect fill="#02afdb" stroke-width="74" stroke-opacity="0" x="99.527334" y="336.126729" width="172.000007" height="1.858468" id="svg_55" transform="rotate(-101 185.52728271484372,337.056396484375) " stroke="#11229d" filter="url(#svg_40_blur)"/>
  <line fill="none" stroke-width="1.5" stroke-opacity="0" x1="267.501991" y1="145.989938" x2="293.501992" y2="368.989938" id="svg_17" stroke-linejoin="null" stroke-linecap="null" stroke="#11229d"/>
  <rect fill="#02afdb" stroke-width="74" stroke-opacity="0" x="100.428444" y="386.100971" width="110.226247" height="1.858468" id="svg_45" transform="rotate(-151 155.54151916503906,387.0306396484375) " filter="url(#svg_40_blur)" stroke="#11229d"/>
  <rect fill="#02afdb" stroke-width="74" stroke-opacity="0" x="199.527334" y="380.126729" width="172.000007" height="1.858468" id="svg_40" transform="rotate(-21 285.52731323242216,381.05609130859375) " stroke="#11229d" filter="url(#svg_40_blur)"/>
  <rect fill="#02afdb" stroke-width="74" stroke-opacity="0" x="48.527334" y="473.126729" width="172.000007" height="1.858468" id="svg_44" transform="rotate(-42 134.52728271484378,474.05639648437506) " stroke="#11229d" filter="url(#svg_40_blur)"/>
  <rect fill="#02afdb" stroke-width="74" stroke-opacity="0" x="104.527334" y="501.126729" width="172.000007" height="1.858468" id="svg_43" filter="url(#svg_40_blur)" stroke="#11229d" transform="rotate(96 190.52728271484375,502.05639648437494) "/>
  <rect fill="#02afdb" stroke-width="74" stroke-opacity="0" x="184.527334" y="471.126729" width="172.000007" height="1.858468" id="svg_42" stroke="#11229d" filter="url(#svg_40_blur)" transform="rotate(39 270.52728271484364,472.05639648437494) "/>
  <ellipse fill="#00cbff" stroke="#11229d" stroke-width="1.5" stroke-opacity="0" cx="204.499999" cy="412.989938" id="svg_31" rx="9" ry="9"/>
  <rect fill="#02afdb" stroke-width="74" stroke-opacity="0" x="346.527334" y="406.126729" width="172.000007" height="1.858468" id="svg_46" transform="rotate(39 432.5272827148435,407.05639648437506) " stroke="#11229d" filter="url(#svg_40_blur)"/>
  <ellipse fill="#ffffff" stroke="#11229d" stroke-width="1.5" stroke-opacity="0" cx="204.499999" cy="413.989938" id="svg_32" rx="9" ry="9" opacity="0.78" filter="url(#svg_32_blur)"/>
  <rect fill="#02afdb" stroke-width="74" stroke-opacity="0" x="268.734668" y="438.245353" width="165.757099" height="1.858468" id="svg_41" transform="rotate(-84 351.6131591796875,439.1750183105469) " stroke="#11229d" filter="url(#svg_40_blur)"/>
  <rect fill="#02afdb" stroke-width="74" stroke-opacity="0" x="160.388282" y="300.826086" width="214.076755" height="1.858468" id="svg_56" transform="rotate(29 267.4266052246093,301.75543212890625) " filter="url(#svg_40_blur)" stroke="#11229d"/>
  <rect fill="#02afdb" stroke-width="74" stroke-opacity="0" x="365.119664" y="347.865187" width="117.987558" height="1.858468" id="svg_61" filter="url(#svg_40_blur)" transform="rotate(-3 424.11337280273267,348.7948303222657) " stroke="#11229d"/>
  <rect fill="#02afdb" stroke-width="74" stroke-opacity="0" x="306.43684" y="304.465632" width="97.928594" height="1.858468" id="svg_60" transform="rotate(-97 355.4010925292969,305.3952941894531) " filter="url(#svg_40_blur)" stroke="#11229d"/>
  <rect fill="#00cbff" stroke-width="74" stroke-opacity="0" x="341.525335" y="499.126729" width="172.000007" height="1.858468" id="svg_47" transform="rotate(-27 427.5253295898439,500.05639648437494) " stroke="#11229d" filter="url(#svg_40_blur)" opacity="0.9"/>
  <rect fill="#00cbff" stroke-width="74" stroke-opacity="0" x="465.525335" y="533.126729" width="172.000007" height="1.858468" id="svg_48" transform="rotate(-124 551.5253295898439,534.0563964843751) " stroke="#11229d" filter="url(#svg_40_blur)" opacity="0.9"/>
  <rect fill="#02afdb" stroke-width="74" stroke-opacity="0" x="3.527334" y="445.126729" width="172.000007" height="1.858468" id="svg_50" transform="rotate(-78 89.52735137939455,446.0563659667969) " stroke="#11229d" filter="url(#svg_40_blur)"/>
  <rect fill="#02afdb" stroke-width="74" stroke-opacity="0" x="-41.472666" y="419.126729" width="172.000007" height="1.858468" id="svg_51" transform="rotate(-43 44.527343750000014,420.05639648437494) " stroke="#11229d" filter="url(#svg_40_blur)"/>
  <rect fill="#02afdb" stroke-width="74" stroke-opacity="0" x="-165.857583" y="454.658176" width="269.183588" height="1.858468" id="svg_52" transform="rotate(-58 -31.26577758789072,455.58752441406244) " filter="url(#svg_40_blur)" stroke="#11229d"/>
  <rect fill="#02afdb" stroke-width="74" stroke-opacity="0" x="37.654103" y="350.034674" width="65.28833" height="1.858468" id="svg_53" transform="rotate(16 70.29827880859384,350.9643249511719) " filter="url(#svg_40_blur)" stroke="#11229d"/>
  <rect fill="#02afdb" stroke-width="74" stroke-opacity="0" x="74.247686" y="305.1316" width="127.818134" height="1.858468" id="svg_54" transform="rotate(-62 138.15670776367185,306.061279296875) " filter="url(#svg_40_blur)" stroke="#11229d"/>
  <rect fill="#02afdb" stroke-width="74" stroke-opacity="0" x="173.527334" y="251.126729" width="172.000007" height="1.858468" id="svg_57" transform="rotate(2 259.52728271484125,252.0560760498048) " stroke="#11229d" filter="url(#svg_40_blur)"/>
  <rect fill="#02afdb" stroke-width="74" stroke-opacity="0" x="166.995083" y="237.473062" width="110.423382" height="1.858468" id="svg_58" transform="rotate(-10 222.2067260742186,238.4024200439454) " opacity="0.9" filter="url(#svg_58_blur)" stroke="#11229d"/>
  <rect fill="#02afdb" stroke-width="74" stroke-opacity="0" x="274.745271" y="240.122031" width="73.820518" height="1.858468" id="svg_59" transform="rotate(19 311.65548706054665,241.0513916015625) " filter="url(#svg_40_blur)" stroke="#11229d"/>
  <rect fill="#02afdb" stroke-width="74" stroke-opacity="0" x="439.008767" y="401.482219" width="107.143733" height="1.858468" id="svg_62" transform="rotate(-98 492.5805969238282,402.411865234375) " filter="url(#svg_40_blur)" stroke="#11229d"/>
  <rect stroke="#11229d" fill="#02afdb" stroke-width="74" stroke-opacity="0" x="333.217676" y="299.847303" width="166.314436" height="1.858468" id="svg_63" transform="rotate(-146 416.3748474121094,300.7769470214844) " filter="url(#svg_40_blur)"/>
  <ellipse fill="#00cbff" stroke="#11229d" stroke-width="1.5" stroke-opacity="0" cx="360.501998" cy="350.989938" id="svg_34" rx="9" ry="9"/>
  <ellipse filter="url(#svg_35_blur)" fill="#ffffff" stroke="#11229d" stroke-width="1.5" stroke-opacity="0" cx="361.501998" cy="351.989938" id="svg_35" rx="9" ry="9" opacity="0.9"/>
  <rect fill="#00cbff" stroke-width="74" stroke-opacity="0" x="501.525335" y="489.126729" width="172.000007" height="1.858468" id="svg_64" stroke="#11229d" filter="url(#svg_40_blur)" opacity="0.9" transform="rotate(19.578779220581055 587.5253906249999,490.05639648437494) "/>
  <rect fill="#02afdb" stroke-width="74" stroke-opacity="0" x="449.841365" y="417.38411" width="170.641853" height="1.858468" id="svg_65" transform="rotate(-125 535.1622314453125,418.3137817382812) " filter="url(#svg_40_blur)" stroke="#11229d"/>
  <rect fill="#02afdb" stroke-width="74" stroke-opacity="0" x="28.106833" y="293.038414" width="154.353451" height="1.858468" id="svg_66" transform="rotate(-36 105.28356933593764,293.96777343750006) " filter="url(#svg_40_blur)" stroke="#11229d"/>
  <rect fill="#02afdb" stroke-width="74" stroke-opacity="0" x="348.796837" y="255.2783" width="98.900231" height="1.858468" id="svg_67" filter="url(#svg_40_blur)" stroke="#11229d" transform="rotate(1 398.2468872070302,256.20794677734335) "/>
  <rect fill="#02afdb" stroke-width="74" stroke-opacity="0" x="416.477697" y="302.635803" width="99.196571" height="1.858468" id="svg_68" filter="url(#svg_40_blur)" transform="rotate(-113 466.075927734375,303.56515502929693) " stroke="#11229d"/>
  <rect stroke="#11229d" fill="#02afdb" stroke-width="74" stroke-opacity="0" x="279.822092" y="230.627917" width="99.393397" height="1.858468" id="svg_69" filter="url(#svg_40_blur)" transform="rotate(3 329.5187072753911,231.55758666992182) "/>
  <rect fill="#02afdb" stroke-width="74" stroke-opacity="0" x="377.870777" y="245.615656" width="70.362154" height="1.858468" id="svg_84" transform="rotate(-163 413.0517578125,246.5453186035156) " filter="url(#svg_58_blur)" stroke="#11229d"/>
  <rect fill="#02afdb" stroke-width="74" stroke-opacity="0" x="427.570331" y="307.662731" width="157.173431" height="1.858468" id="svg_70" filter="url(#svg_40_blur)" stroke="#11229d" transform="rotate(-139 506.15701293945307,308.5923767089843) "/>
  <rect stroke="#11229d" fill="#02afdb" stroke-width="74" stroke-opacity="0" x="484.249602" y="354.172545" width="78.02235" height="1.858468" id="svg_71" filter="url(#svg_40_blur)" transform="rotate(9 523.2606811523438,355.1022338867189) "/>
  <rect fill="#02afdb" stroke-width="74" stroke-opacity="0" x="502.528333" y="443.127229" width="172.000007" height="1.858468" id="svg_72" transform="rotate(-106 588.5283203125001,444.05691528320324) " stroke="#11229d" filter="url(#svg_40_blur)"/>
  <ellipse fill="#00cbff" stroke-width="74" stroke-opacity="0" cx="169.751998" cy="247.989938" id="svg_73" rx="7" ry="7" filter="url(#svg_73_blur)" stroke="#11229d"/>
  <ellipse fill="#00cbff" stroke-width="74" stroke-opacity="0" cx="38.751998" cy="340.989938" id="svg_74" rx="7" ry="7" filter="url(#svg_73_blur)" stroke="#11229d"/>
  <rect fill="#02afdb" stroke-width="74" stroke-opacity="0" x="346.776265" y="243.202052" width="38.366586" height="1.858468" id="svg_85" transform="rotate(-35 365.9595031738282,244.13171386718756) " filter="url(#svg_58_blur)" stroke="#11229d"/>
  <ellipse fill="#00cbff" stroke-width="74" stroke-opacity="0" cx="348.751998" cy="254.490684" id="svg_75" rx="7" ry="7" filter="url(#svg_73_blur)" stroke="#11229d"/>
  <ellipse fill="#00cbff" stroke-width="74" stroke-opacity="0" cx="563.252746" cy="360.488702" id="svg_76" rx="7" ry="7" filter="url(#svg_73_blur)" stroke="#11229d"/>
  <ellipse fill="#00cbff" stroke="#11229d" stroke-width="74" stroke-opacity="0" cx="107.502498" cy="360.98945" id="svg_77" rx="9" ry="9" filter="url(#svg_77_blur)"/>
  <ellipse fill="#00cbff" stroke="#11229d" stroke-width="74" stroke-opacity="0" cx="485.002248" cy="346.989439" id="svg_78" rx="9" ry="9" filter="url(#svg_77_blur)"/>
  <ellipse fill="#00cbff" stroke="#11229d" stroke-width="74" stroke-opacity="0" cx="502.499999" cy="460.989938" id="svg_79" rx="9" ry="9" filter="url(#svg_77_blur)"/>
  <ellipse fill="#00cbff" stroke-width="74" stroke-opacity="0" cx="279.5015" cy="228.490184" id="svg_80" rx="5" ry="5" filter="url(#svg_77_blur)" stroke="#11229d"/>
  <ellipse fill="#00cbff" stroke-width="74" stroke-opacity="0" cx="447.00225" cy="257.988939" id="svg_81" rx="5" ry="5" filter="url(#svg_77_blur)" stroke="#11229d"/>
  <ellipse fill="#00cbff" stroke-width="74" stroke-opacity="0" cx="380.001998" cy="233.989939" id="svg_82" rx="4.5" ry="4.000002" filter="url(#svg_77_blur)" stroke="#11229d"/>
  <ellipse fill="#ffffff" stroke-width="74" stroke-opacity="0" cx="39.252248" cy="340.989938" id="svg_86" rx="7" ry="7" stroke="#11229d" filter="url(#svg_86_blur)"/>
  <ellipse fill="#ffffff" stroke="#11229d" stroke-width="74" stroke-opacity="0" cx="107.502498" cy="360.98945" id="svg_87" rx="9" ry="9" opacity="0.83" filter="url(#svg_87_blur)"/>
  <ellipse fill="#ffffff" stroke-width="74" stroke-opacity="0" cx="170.251748" cy="246.990438" id="svg_88" rx="7" ry="7" opacity="0.97" stroke="#11229d" filter="url(#svg_88_blur)"/>
  <ellipse filter="url(#svg_89_blur)" fill="#ffffff" stroke-width="74" stroke-opacity="0" cx="279.001742" cy="228.98994" id="svg_89" rx="5" ry="5" opacity="0.94" stroke="#11229d"/>
  <ellipse fill="#ffffff" stroke-width="74" stroke-opacity="0" cx="380.001998" cy="233.989939" id="svg_92" rx="4.5" ry="4.000002" opacity="0.74" stroke="#11229d" filter="url(#svg_92_blur)"/>
  <ellipse fill="#ffffff" stroke-width="74" stroke-opacity="0" cx="446.502496" cy="257.988939" id="svg_93" rx="5" ry="5" opacity="0.98" stroke="#11229d" filter="url(#svg_93_blur)"/>
  <ellipse fill="#ffffff" stroke="#11229d" stroke-width="74" stroke-opacity="0" cx="484.502498" cy="347.489191" id="svg_94" rx="9" ry="9" opacity="0.87" filter="url(#svg_94_blur)"/>
  <ellipse fill="#ffffff" stroke-width="74" stroke-opacity="0" cx="563.252248" cy="359.988443" id="svg_95" rx="7" ry="7" opacity="0.97" stroke="#11229d" filter="url(#svg_95_blur)"/>
  <ellipse fill="#ffffff" stroke="#11229d" stroke-width="74" stroke-opacity="0" cx="502.499999" cy="460.989938" id="svg_96" rx="9" ry="9" opacity="0.84" filter="url(#svg_96_blur)"/>
  <ellipse fill="#ffffff" stroke-width="74" stroke-opacity="0" fill-opacity="null" cx="41.997001" cy="151.485941" id="svg_102" rx="2.5" ry="2.5" stroke="#11229d" opacity="0.76" filter="url(#svg_102_blur)"/>
  <ellipse fill="#ffffff" stroke-width="74" stroke-opacity="0" fill-opacity="null" cx="28.001998" cy="303.489938" id="svg_113" rx="2.5" ry="2.5" stroke="#11229d" opacity="0.6" filter="url(#svg_102_blur)"/>
  <ellipse fill="#ffffff" stroke-width="74" stroke-opacity="0" fill-opacity="null" cx="102.001998" cy="222.489938" id="svg_114" rx="2.5" ry="2.5" stroke="#11229d" opacity="0.62" filter="url(#svg_102_blur)"/>
  <ellipse fill="#ffffff" stroke-width="74" stroke-opacity="0" fill-opacity="null" cx="524.491754" cy="257.93622" id="svg_115" rx="2.5" ry="2.5" stroke="#11229d" opacity="0.61" filter="url(#svg_102_blur)"/>
  <ellipse fill="#ffffff" stroke-width="74" stroke-opacity="0" fill-opacity="null" cx="474.541726" cy="85.088638" id="svg_116" rx="2.5" ry="2.5" stroke="#11229d" opacity="0.62" filter="url(#svg_102_blur)"/>
  <ellipse fill="#ffffff" stroke-width="74" stroke-opacity="0" fill-opacity="null" cx="311.013991" cy="158.977695" id="svg_117" rx="2.5" ry="2.5" stroke="#11229d" opacity="0.58" filter="url(#svg_102_blur)"/>
  <ellipse fill="#ffffff" stroke-width="74" stroke-opacity="0" fill-opacity="null" cx="502.468268" cy="159.52342" id="svg_118" rx="2.5" ry="2.5" stroke="#11229d" opacity="0.61" filter="url(#svg_102_blur)"/>
  <ellipse fill="#ffffff" stroke-width="74" stroke-opacity="0" fill-opacity="null" cx="170.030482" cy="137.507427" id="svg_119" rx="2.5" ry="2.5" stroke="#11229d" opacity="0.61" filter="url(#svg_102_blur)"/>
  <ellipse fill="#ffffff" stroke-width="74" stroke-opacity="0" fill-opacity="null" cx="271.493752" cy="81.994686" id="svg_120" rx="2.5" ry="2.5" stroke="#11229d" opacity="0.61" filter="url(#svg_102_blur)"/>
  <ellipse fill="#ffffff" stroke-width="74" stroke-opacity="0" fill-opacity="null" cx="404.981009" cy="188.490438" id="svg_2" rx="2.5" ry="2.5" stroke="#11229d" opacity="0.62" filter="url(#svg_102_blur)"/>
  <ellipse filter="url(#svg_91_blur)" fill="#ffffff" stroke-width="74" stroke-opacity="0" cx="348.751998" cy="254.490692" id="svg_91" rx="7" ry="7" stroke="#11229d"/>
  <ellipse fill="#ffffff" stroke-width="74" stroke-opacity="0" fill-opacity="null" cx="570.001998" cy="210.489938" id="svg_3" rx="2.5" ry="2.5" stroke="#11229d" opacity="0.62" filter="url(#svg_102_blur)"/>
  <ellipse fill="#ffffff" stroke-width="74" stroke-opacity="0" fill-opacity="null" cx="120.51574" cy="50.492437" id="svg_22" rx="2.5" ry="2.5" stroke="#11229d" opacity="0.61" filter="url(#svg_102_blur)"/>
  <ellipse fill="#ffffff" stroke-width="74" stroke-opacity="0" fill-opacity="null" cx="524.508244" cy="60.492437" id="svg_23" rx="2.5" ry="2.5" stroke="#11229d" opacity="0.61" filter="url(#svg_102_blur)"/>
  <ellipse fill="#ffffff" stroke-width="74" stroke-opacity="0" fill-opacity="null" cx="379.514741" cy="106.976196" id="svg_24" rx="2.5" ry="2.5" stroke="#11229d" opacity="0.61" filter="url(#svg_102_blur)"/>
  <ellipse fill="#ffffff" stroke-width="74" stroke-opacity="0" fill-opacity="null" cx="0.575707" cy="46.994186" id="svg_26" rx="2.5" ry="2.5" stroke="#11229d" opacity="0.61" filter="url(#svg_102_blur)"/>
 </g>
</svg>